HIERARCHY
ROOT joint_0
{
	OFFSET 0.000000 0.000000 0.000000
	CHANNELS 6 Xposition Yposition Zposition Zrotation Yrotation Xrotation 
	JOINT joint_1
	{
		OFFSET 4.520508 -1.939880 86.268921
		CHANNELS 3 Zrotation Yrotation Xrotation
		JOINT joint_2
		{
			OFFSET -4.459717 -0.438538 78.934082
			CHANNELS 3 Zrotation Yrotation Xrotation
			JOINT joint_3
			{
				OFFSET -5.197754 -0.781128 78.796997
				CHANNELS 3 Zrotation Yrotation Xrotation
				JOINT joint_4
				{
					OFFSET 2.952026 -3.710571 109.812988
					CHANNELS 3 Zrotation Yrotation Xrotation
					JOINT joint_5
					{
						OFFSET 24.716797 -5.488037 87.903931
						CHANNELS 3 Zrotation Yrotation Xrotation
						End Site
						{
							OFFSET 0.000000 0.000000 0.000000
						}
					}
				}
				JOINT joint_6
				{
					OFFSET -3.154419 -25.484680 60.934937
					CHANNELS 3 Zrotation Yrotation Xrotation
					JOINT joint_7
					{
						OFFSET -28.997192 -144.472229 -32.671997
						CHANNELS 3 Zrotation Yrotation Xrotation
						JOINT joint_8
						{
							OFFSET 19.867676 -18.614380 -249.897949
							CHANNELS 3 Zrotation Yrotation Xrotation
							JOINT joint_9
							{
								OFFSET 5.281982 -13.816650 -264.993042
								CHANNELS 3 Zrotation Yrotation Xrotation
								End Site
								{
									OFFSET 0.000000 0.000000 0.000000
								}
							}
						}
					}
				}
				JOINT joint_10
				{
					OFFSET 6.494995 21.336792 62.257935
					CHANNELS 3 Zrotation Yrotation Xrotation
					JOINT joint_11
					{
						OFFSET 31.106567 145.200745 -27.007935
						CHANNELS 3 Zrotation Yrotation Xrotation
						JOINT joint_12
						{
							OFFSET 29.119141 24.684326 -248.460083
							CHANNELS 3 Zrotation Yrotation Xrotation
							JOINT joint_13
							{
								OFFSET 21.220093 31.248413 -262.703979
								CHANNELS 3 Zrotation Yrotation Xrotation
								End Site
								{
									OFFSET 0.000000 0.000000 0.000000
								}
							}
						}
					}
				}
			}
		}
	}
	JOINT joint_14
	{
		OFFSET -15.458496 -88.861694 -109.593018
		CHANNELS 3 Zrotation Yrotation Xrotation
		JOINT joint_15
		{
			OFFSET -6.193359 6.837952 -506.710999
			CHANNELS 3 Zrotation Yrotation Xrotation
			JOINT joint_16
			{
				OFFSET -35.096680 13.289795 -435.677025
				CHANNELS 3 Zrotation Yrotation Xrotation
				JOINT joint_17
				{
					OFFSET 158.491211 -33.916565 -71.771002
					CHANNELS 3 Zrotation Yrotation Xrotation
					End Site
					{
						OFFSET 0.000000 0.000000 0.000000
					}
				}
			}
		}
	}
	JOINT joint_18
	{
		OFFSET 23.116943 86.574158 -110.082031
		CHANNELS 3 Zrotation Yrotation Xrotation
		JOINT joint_19
		{
			OFFSET -6.125854 -0.283569 -506.757019
			CHANNELS 3 Zrotation Yrotation Xrotation
			JOINT joint_20
			{
				OFFSET -63.240234 11.589966 -432.537994
				CHANNELS 3 Zrotation Yrotation Xrotation
				JOINT joint_21
				{
					OFFSET 156.074219 -41.487305 -73.077999
					CHANNELS 3 Zrotation Yrotation Xrotation
					End Site
					{
						OFFSET 0.000000 0.000000 0.000000
					}
				}
			}
		}
	}
}
MOTION
Frames: 9
Frame Time: 0.016667
-1310.459473 838.182007 1140.864990 4.096752 0.317573 0.205500 -0.217641 -0.851180 -0.182393 -0.196988 0.174015 0.024885 -0.202939 -0.148386 -0.020694 0.237985 0.186299 -0.808054 0.000000 0.000000 0.000000 -0.119490 0.563017 -0.751250 0.176801 0.065130 1.396997 -0.053602 0.609140 -0.993749 0.000000 0.000000 0.000000 0.556332 0.210353 0.732724 -0.116550 0.438694 -0.916500 0.253607 0.910594 1.835959 0.000000 0.000000 0.000000 0.558281 2.016822 -2.465722 0.471162 -3.816704 -0.977176 0.539621 2.238753 0.723115 0.000000 0.000000 0.000000 0.372288 1.790527 1.814406 0.411075 -2.957708 -0.583712 0.384280 0.758921 0.381142 0.000000 0.000000 0.000000 
-1310.442139 838.234985 1140.864990 4.086645 0.320333 0.205625 -0.217641 -0.855821 -0.186227 -0.196609 0.175344 0.026728 -0.202863 -0.149249 -0.023150 0.240091 0.188009 -0.815196 0.000000 0.000000 0.000000 -0.116606 0.567971 -0.749285 0.175973 0.071466 1.396238 -0.053414 0.607708 -0.988938 0.000000 0.000000 0.000000 0.561984 0.210485 0.738941 -0.115063 0.436460 -0.902874 0.254560 0.918034 1.836906 0.000000 0.000000 0.000000 0.561737 2.014529 -2.468114 0.474617 -3.817890 -0.979757 0.542808 2.239470 0.724707 0.000000 0.000000 0.000000 0.375819 1.789866 1.812901 0.414593 -2.957311 -0.587090 0.387117 0.756160 0.381733 0.000000 0.000000 0.000000 
-1310.427734 838.285767 1140.864014 4.079772 0.321951 0.205617 -0.217927 -0.856740 -0.189025 -0.196757 0.174117 0.026262 -0.202949 -0.149418 -0.022824 0.242476 0.191482 -0.822951 0.000000 0.000000 0.000000 -0.113964 0.572213 -0.748228 0.175433 0.076569 1.396580 -0.053282 0.606550 -0.985967 0.000000 0.000000 0.000000 0.568540 0.209077 0.743331 -0.114080 0.432604 -0.891909 0.255094 0.922353 1.837233 0.000000 0.000000 0.000000 0.564130 2.013333 -2.470119 0.477014 -3.818381 -0.982195 0.544953 2.239748 0.725735 0.000000 0.000000 0.000000 0.378323 1.790299 1.811424 0.417090 -2.957745 -0.590040 0.389077 0.754347 0.382166 0.000000 0.000000 0.000000 
-1310.415161 838.333496 1140.862061 4.076872 0.322474 0.205423 -0.218282 -0.856965 -0.192161 -0.196863 0.174928 0.027320 -0.203158 -0.149416 -0.023224 0.245321 0.197472 -0.831804 0.000000 0.000000 0.000000 -0.114333 0.574578 -0.746288 0.175167 0.079260 1.396773 -0.053284 0.607314 -0.984257 0.000000 0.000000 0.000000 0.575350 0.205297 0.745570 -0.113602 0.426180 -0.882845 0.255108 0.922924 1.836587 0.000000 0.000000 0.000000 0.564842 2.013641 -2.471423 0.477724 -3.818866 -0.984479 0.545486 2.240506 0.726137 0.000000 0.000000 0.000000 0.379367 1.792192 1.809705 0.418118 -2.960053 -0.591597 0.389904 0.753913 0.382437 0.000000 0.000000 0.000000 
-1310.404419 838.379089 1140.859985 4.076646 0.322494 0.205028 -0.217941 -0.855557 -0.194246 -0.196445 0.173664 0.026903 -0.202632 -0.147455 -0.022468 0.248088 0.204959 -0.840058 0.000000 0.000000 0.000000 -0.117787 0.575950 -0.743889 0.175194 0.080178 1.397511 -0.053379 0.609054 -0.984318 0.000000 0.000000 0.000000 0.579965 0.199639 0.746730 -0.113549 0.418495 -0.876195 0.254680 0.920379 1.834987 0.000000 0.000000 0.000000 0.564586 2.014283 -2.472198 0.477481 -3.818622 -0.986859 0.545059 2.240884 0.726025 0.000000 0.000000 0.000000 0.379587 1.794652 1.808113 0.418329 -2.963267 -0.592693 0.390056 0.754196 0.382583 0.000000 0.000000 0.000000 
-1310.391724 838.425781 1140.858032 4.077938 0.321271 0.203876 -0.217480 -0.852228 -0.195520 -0.195960 0.171689 0.026721 -0.202111 -0.147159 -0.022405 0.250220 0.214721 -0.845533 0.000000 0.000000 0.000000 -0.120853 0.577600 -0.741701 0.175342 0.081092 1.399744 -0.053477 0.610796 -0.984430 0.000000 0.000000 0.000000 0.583815 0.194161 0.747324 -0.113833 0.411597 -0.872567 0.254231 0.916994 1.834428 0.000000 0.000000 0.000000 0.564018 2.016402 -2.472496 0.476912 -3.817966 -0.988468 0.544358 2.241022 0.725737 0.000000 0.000000 0.000000 0.379561 1.798298 1.807447 0.418318 -2.966317 -0.594058 0.389958 0.754606 0.382647 0.000000 0.000000 0.000000 
-1310.373291 838.474792 1140.858032 4.080197 0.319637 0.201959 -0.217089 -0.851631 -0.197418 -0.195396 0.170913 0.027931 -0.201621 -0.145850 -0.022612 0.251073 0.223217 -0.846717 0.000000 0.000000 0.000000 -0.121524 0.578630 -0.740039 0.175679 0.081446 1.403640 -0.053652 0.613979 -0.984387 0.000000 0.000000 0.000000 0.586907 0.188556 0.746551 -0.114669 0.405136 -0.872756 0.254094 0.913840 1.837589 0.000000 0.000000 0.000000 0.563339 2.019219 -2.472910 0.476209 -3.816940 -0.988455 0.543632 2.240565 0.725310 0.000000 0.000000 0.000000 0.379006 1.802363 1.807577 0.417793 -2.968723 -0.595410 0.389363 0.754662 0.382385 0.000000 0.000000 0.000000 
-1310.351807 838.524963 1140.858032 4.084035 0.317403 0.199147 -0.216749 -0.852038 -0.197478 -0.195049 0.172313 0.027570 -0.201266 -0.146297 -0.022624 0.251005 0.232342 -0.844459 0.000000 0.000000 0.000000 -0.121211 0.579598 -0.738762 0.176291 0.081408 1.409596 -0.053896 0.617865 -0.985587 0.000000 0.000000 0.000000 0.590163 0.182938 0.745515 -0.115917 0.399242 -0.876420 0.253913 0.909663 1.841752 0.000000 0.000000 0.000000 0.562227 2.022860 -2.472685 0.475068 -3.815503 -0.987720 0.542519 2.239974 0.724680 0.000000 0.000000 0.000000 0.377993 1.806836 1.808895 0.416836 -2.970706 -0.597192 0.388295 0.754581 0.381866 0.000000 0.000000 0.000000 
-1310.331177 838.572083 1140.859009 4.089601 0.315801 0.196943 -0.216369 -0.851707 -0.198748 -0.194579 0.172155 0.027782 -0.200866 -0.146980 -0.023410 0.250466 0.240544 -0.840725 0.000000 0.000000 0.000000 -0.121416 0.580834 -0.737388 0.176910 0.081305 1.416730 -0.053967 0.618826 -0.986225 0.000000 0.000000 0.000000 0.592452 0.177793 0.744175 -0.117189 0.394158 -0.881144 0.253418 0.903738 1.844525 0.000000 0.000000 0.000000 0.560456 2.025716 -2.472537 0.473292 -3.813694 -0.987574 0.540735 2.239414 0.723754 0.000000 0.000000 0.000000 0.376511 1.809756 1.809675 0.415400 -2.971395 -0.598899 0.386747 0.754471 0.381115 0.000000 0.000000 0.000000 
